<svg height="480pt" viewBox="0 -56 480 480" width="480pt" xmlns="http://www.w3.org/2000/svg"><path d="m456 152c13.25-.015625 23.984375-10.75 24-24v-104c-.015625-13.25-10.75-23.984375-24-24h-432c-13.25.015625-23.984375 10.75-24 24v280c.015625 13.25 10.75 23.984375 24 24h24.722656c3.878906 23.089844 23.863282 40 47.277344 40s43.398438-16.910156 47.277344-40h193.445312c3.878906 23.089844 23.863282 40 47.277344 40s43.398438-16.910156 47.277344-40h24.722656c13.25-.015625 23.984375-10.75 24-24v-45.453125c.003906-9.601563-5.71875-18.277344-14.546875-22.054687l-41.453125-17.765626v-66.726562zm-440-128c.003906-4.417969 3.582031-7.996094 8-8h432c4.417969.003906 7.996094 3.582031 8 8v104c-.003906 4.417969-3.582031 7.996094-8 8h-440zm0 280v-120h32c4.324219-.277344 8.554688 1.316406 11.621094 4.378906 3.0625 3.066406 4.65625 7.296875 4.378906 11.621094v16h-16v16h16v16h-24v16h24v16h-32v16h22.496094c-2.871094 4.945312-4.824219 10.363281-5.773438 16h-24.722656c-4.417969-.003906-7.996094-3.582031-8-8zm80 48c-17.671875 0-32-14.328125-32-32s14.328125-32 32-32 32 14.328125 32 32c-.019531 17.664062-14.335938 31.980469-32 32zm288 0c-17.671875 0-32-14.328125-32-32s14.328125-32 32-32 32 14.328125 32 32c-.019531 17.664062-14.335938 31.980469-32 32zm75.148438-100.804688c2.941406 1.257813 4.851562 4.152344 4.851562 7.351563v45.453125c-.003906 4.417969-3.582031 7.996094-8 8h-24.722656c-3.878906-23.089844-23.863282-40-47.277344-40s-43.398438 16.910156-47.277344 40h-193.445312c-2.3125-13.984375-10.714844-26.222656-22.933594-33.40625s-27-8.574219-40.34375-3.792969v-74.800781c.25-8.5625-3.039062-16.847656-9.097656-22.902344-6.054688-6.058594-14.339844-9.347656-22.902344-9.097656h-32v-16h328v56c.015625 13.25 10.75 23.984375 24 24h46.363281zm-51.148438-35.195312h-40c-4.417969-.003906-7.996094-3.582031-8-8v-56h48zm0 0"/><path d="m140 168h-24c-11.042969.011719-19.988281 8.957031-20 20v24c.011719 11.042969 8.957031 19.988281 20 20h24c11.042969-.011719 19.988281-8.957031 20-20v-24c-.011719-11.042969-8.957031-19.988281-20-20zm4 44c-.003906 2.207031-1.792969 3.996094-4 4h-24c-2.207031-.003906-3.996094-1.792969-4-4v-24c.003906-2.207031 1.792969-3.996094 4-4h24c2.207031.003906 3.996094 1.792969 4 4zm0 0"/><path d="m92 40h-24c-11.042969.011719-19.988281 8.957031-20 20v24c.011719 11.042969 8.957031 19.988281 20 20h24c11.042969-.011719 19.988281-8.957031 20-20v-24c-.011719-11.042969-8.957031-19.988281-20-20zm4 44c-.003906 2.207031-1.792969 3.996094-4 4h-24c-2.207031-.003906-3.996094-1.792969-4-4v-24c.003906-2.207031 1.792969-3.996094 4-4h24c2.207031.003906 3.996094 1.792969 4 4zm0 0"/><path d="m172 40h-24c-11.042969.011719-19.988281 8.957031-20 20v24c.011719 11.042969 8.957031 19.988281 20 20h24c11.042969-.011719 19.988281-8.957031 20-20v-24c-.011719-11.042969-8.957031-19.988281-20-20zm4 44c-.003906 2.207031-1.792969 3.996094-4 4h-24c-2.207031-.003906-3.996094-1.792969-4-4v-24c.003906-2.207031 1.792969-3.996094 4-4h24c2.207031.003906 3.996094 1.792969 4 4zm0 0"/><path d="m252 40h-24c-11.042969.011719-19.988281 8.957031-20 20v24c.011719 11.042969 8.957031 19.988281 20 20h24c11.042969-.011719 19.988281-8.957031 20-20v-24c-.011719-11.042969-8.957031-19.988281-20-20zm4 44c-.003906 2.207031-1.792969 3.996094-4 4h-24c-2.207031-.003906-3.996094-1.792969-4-4v-24c.003906-2.207031 1.792969-3.996094 4-4h24c2.207031.003906 3.996094 1.792969 4 4zm0 0"/><path d="m332 40h-24c-11.042969.011719-19.988281 8.957031-20 20v24c.011719 11.042969 8.957031 19.988281 20 20h24c11.042969-.011719 19.988281-8.957031 20-20v-24c-.011719-11.042969-8.957031-19.988281-20-20zm4 44c-.003906 2.207031-1.792969 3.996094-4 4h-24c-2.207031-.003906-3.996094-1.792969-4-4v-24c.003906-2.207031 1.792969-3.996094 4-4h24c2.207031.003906 3.996094 1.792969 4 4zm0 0"/><path d="m412 40h-24c-11.042969.011719-19.988281 8.957031-20 20v24c.011719 11.042969 8.957031 19.988281 20 20h24c11.042969-.011719 19.988281-8.957031 20-20v-24c-.011719-11.042969-8.957031-19.988281-20-20zm4 44c-.003906 2.207031-1.792969 3.996094-4 4h-24c-2.207031-.003906-3.996094-1.792969-4-4v-24c.003906-2.207031 1.792969-3.996094 4-4h24c2.207031.003906 3.996094 1.792969 4 4zm0 0"/><path d="m228 168h-24c-11.042969.011719-19.988281 8.957031-20 20v24c.011719 11.042969 8.957031 19.988281 20 20h24c11.042969-.011719 19.988281-8.957031 20-20v-24c-.011719-11.042969-8.957031-19.988281-20-20zm4 44c-.003906 2.207031-1.792969 3.996094-4 4h-24c-2.207031-.003906-3.996094-1.792969-4-4v-24c.003906-2.207031 1.792969-3.996094 4-4h24c2.207031.003906 3.996094 1.792969 4 4zm0 0"/><path d="m308 168h-24c-11.042969.011719-19.988281 8.957031-20 20v24c.011719 11.042969 8.957031 19.988281 20 20h24c11.042969-.011719 19.988281-8.957031 20-20v-24c-.011719-11.042969-8.957031-19.988281-20-20zm4 44c-.003906 2.207031-1.792969 3.996094-4 4h-24c-2.207031-.003906-3.996094-1.792969-4-4v-24c.003906-2.207031 1.792969-3.996094 4-4h24c2.207031.003906 3.996094 1.792969 4 4zm0 0"/></svg>